<svg width="12" height="12" viewBox="0 0 12 12" fill="none" xmlns="http://www.w3.org/2000/svg">
<path id="&#239;&#132;&#145;" d="M5.99976 0C9.30444 0 11.9998 2.69531 11.9998 6C11.9998 9.32812 9.30444 12 5.99976 12C2.67163 12 -0.000244141 9.32812 -0.000244141 6C-0.000244141 2.69531 2.67163 0 5.99976 0ZM5.99976 10.875C8.67163 10.875 10.8748 8.69531 10.8748 6C10.8748 3.32812 8.67163 1.125 5.99976 1.125C3.30444 1.125 1.12476 3.32812 1.12476 6C1.12476 8.69531 3.30444 10.875 5.99976 10.875ZM6.93726 7.875C7.24194 7.875 7.49976 8.13281 7.49976 8.4375C7.49976 8.76562 7.24194 9 6.93726 9H5.06226C4.73413 9 4.49976 8.76562 4.49976 8.4375C4.49976 8.13281 4.73413 7.875 5.06226 7.875H5.43726V6.375H5.24976C4.92163 6.375 4.68726 6.14062 4.68726 5.8125C4.68726 5.50781 4.92163 5.25 5.24976 5.25H5.99976C6.30444 5.25 6.56226 5.50781 6.56226 5.8125V7.875H6.93726ZM5.99976 4.5C5.57788 4.5 5.24976 4.17188 5.24976 3.75C5.24976 3.35156 5.57788 3 5.99976 3C6.39819 3 6.74976 3.35156 6.74976 3.75C6.74976 4.17188 6.39819 4.5 5.99976 4.5Z" fill="#ACB3B8"/>
</svg>
